As the world succumbs to a zombie apocalypse, Cole a hardened mercenary, is chasing the one person who can provide a cure. Not only to the plague but to Cole's own incumbent destiny. DEVIL'S PLAYGROUND is a cutting edge British horror film that features zombies portrayed by free runners for a terrifyingly authentic representation of the undead


Genre:Action | Horror
Language:English  http://www.imdb.com/title/tt1453245/
Source:720p BluRay x264-TiTANS

General
Complete name :Devils Playground 2010 BRRip 480p H264 Feel-Free
Format : MPEG-4
Format profile : Base Media
Codec ID : isom
File size : 1.17 GiB
Duration : 1h 33mn
Overall bit rate : 1 805 Kbps
Video #1
Codec ID : avc1
Codec ID/Info : Advanced Video Coding
Duration : 1h 33mn
Bit rate mode : Variable
Bit rate : 1 564 Kbps
Width : 720 pixels
Height : 304 pixels
Display aspect ratio : 16:9
Frame rate mode : Constant
Frame rate : 23.976 fps
Resolution : 24 bits
Colorimetry : 4:2:0
Scan type : Progressive
Bits/(Pixel*Frame) : 0.298
Stream size : 1.02 GiB (87%)
Audio #2
ID : 2
Format : AAC
Format/Info : Advanced Audio Codec
Format version : Version 4
Format profile : LC
Format settings, SBR : No
Codec ID : 40
Duration : 1h 33mn
Bit rate mode : Variable
Bit rate : 256 Kbps
Channel(s) : 6 channels
Channel positions : Front: L C R, Rear: L R, LFE
Sampling rate : 48.0 KHz
Resolution : 16 bits
Stream size : 157 MiB (13%)